<svg xmlns="http://www.w3.org/2000/svg" width="1920" height="1080" viewBox="0 0 1920 1080"><rect width="100%" height="100%" fill="#DDDDDD"/><path fill="#999999" d="M421.05 541.76h22.11q8.15 0 14.2-2.04 6.04-2.03 10.06-5.82 4.02-3.8 5.99-9.25 1.99-5.44 1.99-12.15 0-6.38-1.99-11.55-1.97-5.17-5.93-8.8-3.96-3.63-10.01-5.55-6.06-1.93-14.31-1.93h-22.11v57.09Zm-29.58-79.97h51.69q15.96 0 27.62 3.74t19.25 10.45q7.59 6.71 11.27 16.06 3.69 9.35 3.69 20.46 0 11.55-3.85 21.18-3.86 9.62-11.55 16.55-7.7 6.93-19.31 10.78-11.6 3.85-27.12 3.85h-22.11v55.99h-29.58V461.79Zm132.22-4.4h27.17v163.46h-27.17V457.39ZM637.65 591.7v-19.03q-11.77.55-19.8 2.03-8.03 1.49-12.87 3.8-4.84 2.31-6.93 5.39-2.09 3.08-2.09 6.71 0 7.15 4.23 10.23 4.24 3.08 11.06 3.08 8.36 0 14.46-3.02 6.11-3.03 11.94-9.19Zm-57.42-59.29-4.84-8.69q19.47-17.82 46.86-17.82 9.9 0 17.71 3.25 7.81 3.24 13.2 9.01 5.39 5.78 8.19 13.81 2.81 8.03 2.81 17.6v71.28h-12.32q-3.85 0-5.94-1.16-2.09-1.15-3.3-4.67l-2.42-8.14q-4.29 3.85-8.36 6.76-4.07 2.92-8.47 4.9-4.4 1.98-9.41 3.02-5 1.05-11.05 1.05-7.15 0-13.2-1.93-6.05-1.92-10.45-5.77-4.4-3.85-6.82-9.57-2.42-5.72-2.42-13.31 0-4.29 1.43-8.52 1.43-4.24 4.67-8.09 3.25-3.85 8.42-7.26 5.17-3.41 12.7-5.94 7.54-2.53 17.55-4.13 10.01-1.59 22.88-1.92v-6.6q0-11.33-4.84-16.78-4.84-5.44-13.97-5.44-6.6 0-10.95 1.54-4.34 1.54-7.64 3.46-3.3 1.93-6 3.47-2.69 1.54-5.99 1.54-2.86 0-4.84-1.48-1.98-1.49-3.19-3.47Zm197.45-10.45-7.15 9.9q-1.21 1.54-2.37 2.42-1.15.88-3.35.88-2.09 0-4.07-1.26-1.98-1.27-4.73-2.86-2.75-1.6-6.55-2.86-3.79-1.27-9.4-1.27-7.15 0-12.54 2.58-5.39 2.59-8.97 7.43-3.57 4.84-5.33 11.71-1.76 6.88-1.76 15.57 0 9.02 1.92 16.06 1.93 7.04 5.56 11.82 3.63 4.79 8.8 7.27 5.17 2.47 11.66 2.47t10.5-1.6q4.02-1.59 6.77-3.51 2.75-1.93 4.78-3.52 2.04-1.6 4.57-1.6 3.3 0 4.95 2.53l7.81 9.9q-4.51 5.28-9.79 8.86-5.28 3.57-10.95 5.72-5.66 2.14-11.66 3.02-5.99.88-11.93.88-10.45 0-19.69-3.9-9.24-3.91-16.17-11.39-6.94-7.48-10.95-18.32-4.01-10.83-4.01-24.69 0-12.43 3.57-23.05 3.58-10.61 10.51-18.36 6.93-7.76 17.16-12.16t23.54-4.4q12.65 0 22.16 4.07 9.52 4.07 17.11 11.66Zm39.49 29.48h51.26q0-5.28-1.49-9.95-1.48-4.68-4.45-8.2-2.97-3.52-7.54-5.55-4.56-2.04-10.61-2.04-11.77 0-18.54 6.71-6.76 6.71-8.63 19.03Zm69.3 16.39h-69.85q.66 8.69 3.08 15.01 2.42 6.33 6.38 10.46 3.96 4.12 9.4 6.16 5.45 2.03 12.05 2.03 6.6 0 11.38-1.54 4.79-1.54 8.36-3.41 3.58-1.87 6.27-3.41 2.7-1.54 5.23-1.54 3.41 0 5.06 2.53l7.81 9.9q-4.51 5.28-10.12 8.86-5.61 3.57-11.72 5.72-6.1 2.14-12.43 3.02-6.32.88-12.26.88-11.77 0-21.89-3.9-10.12-3.91-17.6-11.55-7.48-7.65-11.77-18.93-4.29-11.27-4.29-26.12 0-11.55 3.74-21.73 3.74-10.17 10.72-17.7 6.99-7.54 17.05-11.94 10.07-4.4 22.72-4.4 10.67 0 19.69 3.41 9.02 3.41 15.51 9.96 6.49 6.54 10.17 16.05 3.69 9.52 3.69 21.73 0 6.16-1.32 8.31-1.32 2.14-5.06 2.14Zm53.9-110.44v62.7q6.6-6.16 14.52-10.01 7.92-3.85 18.59-3.85 9.24 0 16.39 3.14 7.15 3.13 11.93 8.79 4.79 5.67 7.26 13.53 2.48 7.87 2.48 17.33v71.83h-27.17v-71.83q0-10.34-4.73-16-4.73-5.67-14.41-5.67-7.04 0-13.2 3.19-6.16 3.19-11.66 8.69v81.62H913.2V457.39h27.17Zm146.85 48.84q12.54 0 22.82 4.07 10.29 4.07 17.6 11.55 7.32 7.48 11.28 18.26 3.96 10.78 3.96 24.09 0 13.42-3.96 24.2t-11.28 18.37q-7.31 7.59-17.6 11.66-10.28 4.07-22.82 4.07-12.65 0-22.99-4.07-10.34-4.07-17.66-11.66-7.31-7.59-11.33-18.37-4.01-10.78-4.01-24.2 0-13.31 4.01-24.09 4.02-10.78 11.33-18.26 7.32-7.48 17.66-11.55t22.99-4.07Zm0 95.37q14.08 0 20.84-9.46 6.77-9.46 6.77-27.72 0-18.26-6.77-27.83-6.76-9.57-20.84-9.57-14.3 0-21.18 9.63-6.87 9.62-6.87 27.77t6.87 27.66q6.88 9.52 21.18 9.52ZM1164 457.39h27.17v163.46H1164V457.39Zm125.18 130.02v-50.6q-4.62-5.61-10.07-7.92-5.44-2.31-11.71-2.31-6.16 0-11.11 2.31-4.95 2.31-8.47 6.99-3.52 4.67-5.39 11.88-1.87 7.2-1.87 16.99 0 9.9 1.59 16.77 1.6 6.88 4.57 11.22 2.97 4.35 7.26 6.27 4.29 1.93 9.57 1.93 8.47 0 14.41-3.52 5.94-3.52 11.22-10.01Zm0-130.02h27.17v163.46h-16.61q-5.39 0-6.82-4.95l-2.31-10.89q-6.82 7.81-15.68 12.65-8.85 4.84-20.62 4.84-9.24 0-16.94-3.85-7.7-3.85-13.26-11.17-5.55-7.31-8.58-18.09-3.02-10.78-3.02-24.64 0-12.54 3.41-23.32 3.41-10.78 9.79-18.7 6.38-7.92 15.29-12.38 8.91-4.45 20.02-4.45 9.46 0 16.17 2.97 6.71 2.97 11.99 8.03v-59.51Zm75.46 94.05h51.26q0-5.28-1.49-9.95-1.49-4.68-4.45-8.2-2.97-3.52-7.54-5.55-4.56-2.04-10.61-2.04-11.78 0-18.54 6.71t-8.63 19.03Zm69.3 16.39h-69.85q.66 8.69 3.07 15.01 2.43 6.33 6.38 10.46 3.97 4.12 9.41 6.16 5.45 2.03 12.05 2.03 6.59 0 11.38-1.54 4.78-1.54 8.36-3.41 3.58-1.87 6.27-3.41 2.7-1.54 5.23-1.54 3.41 0 5.05 2.53l7.82 9.9q-4.52 5.28-10.12 8.86-5.61 3.57-11.72 5.72-6.11 2.14-12.43 3.02-6.32.88-12.26.88-11.77 0-21.89-3.9-10.12-3.91-17.6-11.55-7.49-7.65-11.77-18.93-4.29-11.27-4.29-26.12 0-11.55 3.74-21.73 3.74-10.17 10.72-17.7 6.98-7.54 17.05-11.94 10.07-4.4 22.72-4.4 10.66 0 19.69 3.41 9.02 3.41 15.51 9.96 6.49 6.54 10.17 16.05 3.69 9.52 3.69 21.73 0 6.16-1.32 8.31-1.33 2.14-5.06 2.14Zm50.71-53.02 1.64 12.76q5.29-10.12 12.55-15.89 7.26-5.78 17.16-5.78 7.81 0 12.53 3.41l-1.75 20.35q-.55 1.98-1.6 2.8-1.04.83-2.8.83-1.65 0-4.9-.55-3.24-.55-6.32-.55-4.51 0-8.03 1.32-3.52 1.32-6.33 3.79-2.8 2.48-4.95 6-2.14 3.52-4.01 8.03v69.52h-27.17V507.99h15.95q4.17 0 5.83 1.48 1.65 1.49 2.2 5.34Z"/></svg>